<svg xmlns="http://www.w3.org/2000/svg" xmlns:xlink="http://www.w3.org/1999/xlink" preserveAspectRatio="xMidYMid" width="50.594" height="50.594" viewBox="0 0 50.594 50.594">
  <defs>
    <style>
      .cls-1 {
        fill: #f9f9f9;
        fill-rule: evenodd;
      }
    </style>
  </defs>
  <path d="M48.645,27.240 L44.754,27.240 C43.678,27.240 42.808,26.370 42.808,25.294 C42.808,24.219 43.678,23.349 44.754,23.349 L48.645,23.349 C49.720,23.349 50.590,24.219 50.590,25.294 C50.590,26.370 49.720,27.240 48.645,27.240 ZM40.430,12.911 C39.670,13.671 38.439,13.671 37.678,12.911 C36.918,12.151 36.918,10.920 37.678,10.160 L40.430,7.409 C41.189,6.649 42.421,6.649 43.180,7.409 C43.940,8.168 43.940,9.400 43.180,10.160 L40.430,12.911 ZM25.299,38.913 C17.790,38.913 11.680,32.803 11.680,25.294 C11.680,17.786 17.790,11.676 25.299,11.676 C32.807,11.676 38.917,17.786 38.917,25.294 C38.917,32.803 32.807,38.913 25.299,38.913 ZM25.299,15.567 C19.926,15.567 15.571,19.921 15.571,25.294 C15.571,30.667 19.926,35.022 25.299,35.022 C30.672,35.022 35.026,30.667 35.026,25.294 C35.026,19.921 30.672,15.567 25.299,15.567 ZM25.299,7.785 C24.223,7.785 23.353,6.915 23.353,5.839 L23.353,1.948 C23.353,0.873 24.223,0.003 25.299,0.003 C26.374,0.003 27.244,0.873 27.244,1.948 L27.244,5.839 C27.244,6.915 26.374,7.785 25.299,7.785 ZM10.164,12.913 L7.413,10.161 C6.653,9.402 6.653,8.170 7.413,7.411 C8.173,6.651 9.404,6.651 10.164,7.411 L12.915,10.161 C13.675,10.922 13.675,12.153 12.915,12.913 C12.155,13.673 10.924,13.673 10.164,12.913 ZM7.789,25.294 C7.789,26.370 6.919,27.240 5.844,27.240 L1.953,27.240 C0.878,27.240 0.007,26.370 0.007,25.294 C0.007,24.219 0.878,23.349 1.953,23.349 L5.844,23.349 C6.919,23.349 7.789,24.219 7.789,25.294 ZM10.168,37.678 C10.928,36.914 12.159,36.918 12.919,37.678 C13.679,38.437 13.679,39.665 12.919,40.428 L10.168,43.180 C9.408,43.940 8.177,43.940 7.417,43.180 C6.657,42.420 6.657,41.189 7.417,40.428 L10.168,37.678 ZM25.299,42.804 C26.374,42.804 27.244,43.674 27.244,44.749 L27.244,48.640 C27.244,49.715 26.374,50.585 25.299,50.585 C24.223,50.585 23.353,49.715 23.353,48.640 L23.353,44.749 C23.353,43.674 24.223,42.804 25.299,42.804 ZM40.433,37.674 L43.184,40.425 C43.944,41.185 43.944,42.416 43.184,43.176 C42.424,43.936 41.193,43.936 40.433,43.176 L37.682,40.425 C36.918,39.665 36.922,38.434 37.682,37.674 C38.442,36.914 39.670,36.914 40.433,37.674 Z" class="cls-1"/>
</svg>
