<svg xmlns="http://www.w3.org/2000/svg" xmlns:xlink="http://www.w3.org/1999/xlink" preserveAspectRatio="xMidYMid" width="26.344" height="28.25" viewBox="0 0 26.344 28.25">
  <defs>
    <style>
      .cls-1 {
        fill: #f9f9f9;
        fill-rule: evenodd;
      }
    </style>
  </defs>
  <path d="M21.582,26.187 C14.903,30.263 6.150,28.144 2.075,21.460 C-2.001,14.779 0.120,6.025 6.802,1.951 C8.571,0.873 10.568,0.211 12.737,-0.012 C13.416,-0.081 14.075,0.248 14.430,0.829 C14.787,1.415 14.777,2.149 14.403,2.721 C12.128,6.207 12.048,10.555 14.192,14.070 C16.332,17.582 20.236,19.500 24.378,19.077 C25.058,19.007 25.717,19.335 26.071,19.919 C26.429,20.501 26.418,21.238 26.044,21.811 C24.856,23.636 23.352,25.109 21.582,26.187 ZM8.649,4.980 C3.637,8.038 2.046,14.602 5.104,19.613 C8.370,24.970 15.806,26.360 20.729,22.468 C16.794,21.770 13.317,19.447 11.162,15.918 C9.008,12.388 8.535,8.233 9.717,4.416 C9.348,4.583 8.992,4.771 8.649,4.980 Z" class="cls-1"/>
</svg>
