<svg xmlns="http://www.w3.org/2000/svg" xmlns:xlink="http://www.w3.org/1999/xlink" preserveAspectRatio="xMidYMid" width="113" height="81.906" viewBox="0 0 113 81.906">
  <defs>
    <style>
      .cls-1 {
        fill: #f9f9f9;
        fill-rule: evenodd;
      }
    </style>
  </defs>
  <path d="M98.884,45.181 L97.156,39.335 L111.285,35.160 L113.012,41.006 L98.884,45.181 ZM92.941,26.103 L104.474,16.935 L108.267,21.707 L96.735,30.875 L92.941,26.103 ZM82.071,14.729 L90.967,2.986 L95.826,6.667 L86.930,18.410 L82.071,14.729 ZM69.494,59.711 C67.116,59.711 64.786,59.276 62.592,58.434 C57.564,62.822 51.167,65.271 44.471,65.271 C37.782,65.271 31.379,62.822 26.351,58.434 C24.157,59.276 21.827,59.711 19.449,59.711 C8.719,59.711 -0.013,50.979 -0.013,40.249 C-0.013,29.518 8.719,20.787 19.449,20.787 C20.372,20.787 21.285,20.852 22.191,20.982 C27.388,13.909 35.577,9.665 44.471,9.665 C53.366,9.665 61.560,13.909 66.752,20.982 C67.658,20.852 68.571,20.787 69.494,20.787 C80.224,20.787 88.956,29.518 88.956,40.249 C88.956,50.979 80.224,59.711 69.494,59.711 ZM69.339,0.015 L75.435,0.015 L75.435,14.747 L69.339,14.747 L69.339,0.015 ZM75.446,67.553 L75.004,81.878 L68.982,81.918 L69.424,67.593 L75.446,67.553 ZM95.486,73.218 L90.717,76.895 L82.397,65.225 L87.166,61.548 L95.486,73.218 ZM96.172,52.189 L108.406,60.397 L105.010,65.459 L92.776,57.252 L96.172,52.189 Z" class="cls-1"/>
</svg>
