<svg xmlns="http://www.w3.org/2000/svg" xmlns:xlink="http://www.w3.org/1999/xlink" preserveAspectRatio="xMidYMid" width="49.843" height="30.781" viewBox="0 0 49.843 30.781">
  <defs>
    <style>
      .cls-1 {
        fill: #f9f9f9;
        fill-rule: evenodd;
      }
    </style>
  </defs>
  <path d="M38.940,6.161 C38.423,6.161 37.911,6.197 37.403,6.269 C34.494,2.353 29.901,0.003 24.916,0.003 C19.931,0.003 15.341,2.353 12.429,6.269 C11.921,6.197 11.409,6.161 10.892,6.161 C4.878,6.161 -0.016,10.996 -0.016,16.937 C-0.016,22.878 4.878,27.713 10.892,27.713 C12.225,27.713 13.531,27.472 14.760,27.006 C17.578,29.436 21.167,30.792 24.916,30.792 C28.669,30.792 32.254,29.436 35.072,27.006 C36.301,27.472 37.607,27.713 38.940,27.713 C44.954,27.713 49.848,22.878 49.848,16.937 C49.848,10.996 44.954,6.161 38.940,6.161 Z" class="cls-1"/>
</svg>
