<svg xmlns="http://www.w3.org/2000/svg" xmlns:xlink="http://www.w3.org/1999/xlink" preserveAspectRatio="xMidYMid" width="45.406" height="39.75" viewBox="0 0 45.406 39.75">
  <defs>
    <style>
      .cls-1 {
        fill: #f9f9f9;
        fill-rule: evenodd;
      }
    </style>
  </defs>
  <path d="M35.468,25.545 C34.254,25.545 33.065,25.324 31.945,24.894 C29.378,27.134 26.113,28.384 22.696,28.384 C19.281,28.384 16.013,27.134 13.446,24.894 C12.326,25.324 11.137,25.545 9.923,25.545 C4.446,25.545 -0.011,21.088 -0.011,15.611 C-0.011,10.134 4.446,5.677 9.923,5.677 C10.394,5.677 10.860,5.710 11.323,5.777 C13.975,2.166 18.155,0.000 22.696,0.000 C27.236,0.000 31.418,2.166 34.068,5.777 C34.531,5.710 34.997,5.677 35.468,5.677 C40.945,5.677 45.402,10.134 45.402,15.611 C45.402,21.088 40.945,25.545 35.468,25.545 ZM25.534,36.899 C25.534,38.468 24.264,39.737 22.696,39.737 C21.127,39.737 19.857,38.468 19.857,36.899 C19.857,35.330 22.696,31.222 22.696,31.222 C22.696,31.222 25.534,35.330 25.534,36.899 Z" class="cls-1"/>
</svg>
