<svg xmlns="http://www.w3.org/2000/svg" xmlns:xlink="http://www.w3.org/1999/xlink" preserveAspectRatio="xMidYMid" width="116.531" height="90.844" viewBox="0 0 116.531 90.844">
  <defs>
    <style>
      .cls-1 {
        fill: #f9f9f9;
        fill-rule: evenodd;
      }
    </style>
  </defs>
  <path d="M102.414,45.157 L100.687,39.311 L114.815,35.136 L116.543,40.982 L102.414,45.157 ZM96.472,26.079 L108.004,16.911 L111.798,21.683 L100.266,30.851 L96.472,26.079 ZM85.601,14.705 L94.497,2.962 L99.357,6.643 L90.460,18.387 L85.601,14.705 ZM72.870,-0.009 L78.966,-0.009 L78.966,14.723 L72.870,14.723 L72.870,-0.009 ZM94.479,40.631 C94.479,52.028 85.205,61.302 73.808,61.302 C71.282,61.302 68.808,60.841 66.478,59.946 C61.137,64.607 54.343,67.208 47.232,67.208 C40.126,67.208 33.326,64.607 27.986,59.946 C25.656,60.841 23.181,61.302 20.655,61.302 C9.259,61.302 -0.015,52.028 -0.015,40.631 C-0.015,29.235 9.259,19.961 20.655,19.961 C21.636,19.961 22.605,20.030 23.568,20.169 C29.087,12.657 37.785,8.149 47.232,8.149 C56.679,8.149 65.382,12.657 70.895,20.169 C71.859,20.030 72.828,19.961 73.808,19.961 C85.205,19.961 94.479,29.235 94.479,40.631 ZM53.138,84.925 C53.138,88.189 50.496,90.831 47.232,90.831 C43.968,90.831 41.326,88.189 41.326,84.925 C41.326,81.661 47.232,73.113 47.232,73.113 C47.232,73.113 53.138,81.661 53.138,84.925 ZM78.977,67.529 L78.534,81.855 L72.512,81.894 L72.955,67.569 L78.977,67.529 ZM99.017,73.194 L94.248,76.871 L85.928,65.201 L90.697,61.524 L99.017,73.194 ZM99.703,52.166 L111.937,60.373 L108.541,65.435 L96.306,57.228 L99.703,52.166 Z" class="cls-1"/>
</svg>
