<svg xmlns="http://www.w3.org/2000/svg" xmlns:xlink="http://www.w3.org/1999/xlink" preserveAspectRatio="xMidYMid" width="43.062" height="43.062" viewBox="0 0 43.062 43.062">
  <defs>
    <style>
      .cls-1 {
        fill: #f9f9f9;
        fill-rule: evenodd;
      }
    </style>
  </defs>
  <path d="M33.644,24.224 C32.492,24.224 31.364,24.013 30.302,23.606 C27.868,25.730 24.771,26.916 21.530,26.916 C18.291,26.916 15.191,25.730 12.757,23.606 C11.695,24.013 10.567,24.224 9.415,24.224 C4.221,24.224 -0.007,19.996 -0.007,14.801 C-0.007,9.607 4.221,5.379 9.415,5.379 C9.862,5.379 10.304,5.411 10.743,5.474 C13.259,2.050 17.223,-0.005 21.530,-0.005 C25.836,-0.005 29.803,2.050 32.316,5.474 C32.755,5.411 33.197,5.379 33.644,5.379 C38.839,5.379 43.066,9.607 43.066,14.801 C43.066,19.996 38.839,24.224 33.644,24.224 ZM3.180,30.638 L4.192,30.367 C4.218,30.050 4.297,29.739 4.436,29.445 L3.698,28.706 C3.353,28.362 3.353,27.802 3.698,27.457 C4.042,27.113 4.599,27.110 4.946,27.457 L5.687,28.196 C5.979,28.057 6.287,27.978 6.608,27.952 L6.881,26.937 C7.007,26.466 7.491,26.188 7.964,26.314 C8.430,26.437 8.711,26.923 8.585,27.394 L8.317,28.398 C8.448,28.488 8.574,28.588 8.692,28.703 C8.811,28.822 8.908,28.951 9.000,29.077 L9.999,28.808 C10.475,28.685 10.959,28.966 11.085,29.434 C11.211,29.907 10.930,30.388 10.462,30.517 L9.447,30.785 C9.426,31.106 9.342,31.419 9.200,31.711 L9.941,32.452 C10.288,32.797 10.283,33.357 9.941,33.698 C9.594,34.043 9.037,34.048 8.692,33.701 L7.954,32.962 C7.659,33.102 7.349,33.183 7.028,33.209 L6.755,34.219 C6.629,34.689 6.148,34.971 5.675,34.845 C5.206,34.718 4.925,34.232 5.051,33.759 L5.320,32.757 C5.188,32.670 5.062,32.568 4.946,32.452 C4.825,32.334 4.725,32.208 4.636,32.074 L3.637,32.344 C3.164,32.468 2.680,32.192 2.551,31.722 C2.425,31.248 2.706,30.767 3.180,30.638 ZM6.192,31.204 C6.539,31.548 7.099,31.548 7.444,31.204 C7.785,30.859 7.788,30.299 7.444,29.955 C7.099,29.610 6.539,29.610 6.192,29.955 C5.851,30.297 5.851,30.859 6.192,31.204 ZM15.641,37.321 L17.152,36.448 C17.103,36.185 17.071,35.917 17.071,35.638 C17.071,35.360 17.103,35.092 17.152,34.826 L15.641,33.953 C14.931,33.543 14.684,32.634 15.094,31.924 C15.504,31.211 16.414,30.970 17.126,31.380 L18.653,32.263 C19.064,31.913 19.529,31.637 20.044,31.453 L20.044,29.697 C20.044,28.874 20.709,28.209 21.530,28.209 C22.350,28.209 23.018,28.874 23.018,29.697 L23.018,31.456 C23.533,31.640 23.996,31.913 24.406,32.263 L25.936,31.380 C26.648,30.970 27.555,31.214 27.965,31.926 C28.373,32.631 28.131,33.541 27.421,33.953 L25.904,34.829 C25.954,35.092 25.988,35.360 25.988,35.638 C25.988,35.917 25.954,36.185 25.907,36.448 L27.421,37.321 C28.133,37.736 28.375,38.646 27.965,39.356 C27.555,40.066 26.648,40.308 25.936,39.898 L24.408,39.014 C24.001,39.366 23.533,39.640 23.018,39.824 L23.018,41.585 C23.018,42.405 22.350,43.068 21.530,43.068 C20.709,43.068 20.044,42.405 20.044,41.585 L20.044,39.824 C19.526,39.640 19.061,39.366 18.651,39.019 L17.124,39.898 C16.414,40.308 15.504,40.066 15.094,39.356 C14.684,38.646 14.928,37.731 15.641,37.321 ZM21.530,37.127 C22.350,37.127 23.015,36.459 23.015,35.638 C23.015,34.818 22.350,34.153 21.530,34.153 C20.709,34.153 20.042,34.818 20.042,35.638 C20.042,36.459 20.709,37.127 21.530,37.127 ZM33.060,31.500 L34.062,31.771 C34.151,31.640 34.251,31.514 34.367,31.396 C34.485,31.280 34.611,31.177 34.745,31.088 L34.475,30.086 C34.351,29.616 34.627,29.132 35.098,29.003 C35.571,28.877 36.055,29.158 36.181,29.629 L36.452,30.644 C36.772,30.670 37.082,30.749 37.374,30.885 L38.113,30.149 C38.460,29.802 39.017,29.805 39.362,30.149 C39.706,30.491 39.709,31.051 39.362,31.398 L38.623,32.137 C38.765,32.431 38.841,32.739 38.867,33.059 L39.882,33.330 C40.353,33.459 40.632,33.943 40.505,34.414 C40.382,34.881 39.896,35.163 39.425,35.037 L38.421,34.768 C38.331,34.897 38.231,35.026 38.116,35.144 C37.997,35.260 37.868,35.360 37.742,35.449 L38.011,36.451 C38.137,36.927 37.853,37.410 37.385,37.537 C36.912,37.663 36.431,37.382 36.302,36.911 L36.034,35.899 C35.713,35.875 35.400,35.794 35.108,35.652 L34.367,36.393 C34.022,36.737 33.465,36.735 33.121,36.390 C32.776,36.046 32.774,35.489 33.118,35.144 L33.859,34.403 C33.717,34.109 33.636,33.798 33.610,33.480 L32.600,33.209 C32.132,33.080 31.848,32.599 31.974,32.126 C32.101,31.658 32.590,31.375 33.060,31.500 ZM35.615,33.893 C35.960,34.237 36.520,34.240 36.867,33.893 C37.209,33.551 37.209,32.989 36.867,32.644 C36.522,32.300 35.960,32.300 35.615,32.644 C35.271,32.991 35.274,33.551 35.615,33.893 Z" class="cls-1"/>
</svg>
