<svg xmlns="http://www.w3.org/2000/svg" xmlns:xlink="http://www.w3.org/1999/xlink" preserveAspectRatio="xMidYMid" width="38.375" height="38.407" viewBox="0 0 38.375 38.407">
  <defs>
    <style>
      .cls-1 {
        fill: #f9f9f9;
        fill-rule: evenodd;
      }
    </style>
  </defs>
  <path d="M36.910,32.495 L1.465,32.495 C0.649,32.495 -0.012,31.835 -0.012,31.018 C-0.012,30.202 0.649,29.541 1.465,29.541 L36.910,29.541 C37.726,29.541 38.387,30.202 38.387,31.018 C38.387,31.835 37.726,32.495 36.910,32.495 ZM36.910,26.588 L1.465,26.588 C0.649,26.588 -0.012,25.927 -0.012,25.111 C-0.012,24.294 0.649,23.634 1.465,23.634 L36.910,23.634 C37.726,23.634 38.387,24.294 38.387,25.111 C38.387,25.927 37.726,26.588 36.910,26.588 ZM36.910,20.680 L33.956,20.680 C33.140,20.680 32.479,20.020 32.479,19.203 C32.479,18.387 33.140,17.727 33.956,17.727 L36.910,17.727 C37.726,17.727 38.387,18.387 38.387,19.203 C38.387,20.020 37.726,20.680 36.910,20.680 ZM30.674,9.803 C30.097,10.380 29.162,10.380 28.585,9.803 C28.008,9.226 28.008,8.291 28.585,7.715 L30.674,5.626 C31.251,5.049 32.185,5.049 32.762,5.626 C33.339,6.203 33.339,7.137 32.762,7.715 L30.674,9.803 ZM29.376,20.680 L26.422,20.680 C26.520,20.203 26.572,19.710 26.572,19.203 C26.572,15.125 23.266,11.819 19.187,11.819 C15.109,11.819 11.803,15.125 11.803,19.203 C11.803,19.710 11.855,20.203 11.953,20.680 L8.999,20.680 C8.930,20.194 8.849,19.710 8.849,19.203 C8.849,13.504 13.488,8.865 19.187,8.865 C24.887,8.865 29.526,13.504 29.526,19.203 C29.526,19.710 29.448,20.194 29.376,20.680 ZM19.187,5.912 C18.371,5.912 17.711,5.251 17.711,4.435 L17.711,1.481 C17.711,0.665 18.371,0.004 19.187,0.004 C20.004,0.004 20.664,0.665 20.664,1.481 L20.664,4.435 C20.664,5.251 20.004,5.912 19.187,5.912 ZM7.699,9.804 L5.610,7.716 C5.033,7.139 5.033,6.204 5.610,5.627 C6.187,5.051 7.121,5.051 7.699,5.627 L9.787,7.716 C10.364,8.293 10.364,9.227 9.787,9.804 C9.210,10.381 8.276,10.381 7.699,9.804 ZM5.896,19.203 C5.896,20.020 5.235,20.680 4.419,20.680 L1.465,20.680 C0.649,20.680 -0.012,20.020 -0.012,19.203 C-0.012,18.387 0.649,17.727 1.465,17.727 L4.419,17.727 C5.235,17.727 5.896,18.387 5.896,19.203 ZM1.465,35.449 L36.910,35.449 C37.726,35.449 38.387,36.109 38.387,36.926 C38.387,37.742 37.726,38.403 36.910,38.403 L1.465,38.403 C0.649,38.403 -0.012,37.742 -0.012,36.926 C-0.012,36.109 0.649,35.449 1.465,35.449 Z" class="cls-1"/>
</svg>
