<svg xmlns="http://www.w3.org/2000/svg" xmlns:xlink="http://www.w3.org/1999/xlink" preserveAspectRatio="xMidYMid" width="38.344" height="41.032" viewBox="0 0 38.344 41.032">
  <defs>
    <style>
      .cls-1 {
        fill: #f9f9f9;
        fill-rule: evenodd;
      }
    </style>
  </defs>
  <path d="M36.877,34.154 L1.479,34.154 C0.664,34.154 0.004,33.386 0.004,32.436 C0.004,31.486 0.664,30.717 1.479,30.717 L36.877,30.717 C37.692,30.717 38.352,31.486 38.352,32.436 C38.352,33.386 37.692,34.154 36.877,34.154 ZM36.877,27.280 L1.479,27.280 C0.664,27.280 0.004,26.512 0.004,25.562 C0.004,24.612 0.664,23.843 1.479,23.843 L36.877,23.843 C37.692,23.843 38.352,24.612 38.352,25.562 C38.352,26.512 37.692,27.280 36.877,27.280 ZM30.571,20.406 L26.743,20.406 C27.022,20.091 27.316,19.799 27.564,19.433 C24.248,19.675 20.984,18.285 18.553,15.450 C16.120,12.619 14.924,8.816 15.132,4.953 C14.867,5.195 14.616,5.453 14.380,5.729 C10.929,9.750 10.929,16.291 14.380,20.312 C14.412,20.349 14.449,20.371 14.481,20.406 L10.703,20.406 C7.792,15.088 8.312,7.937 12.294,3.299 C13.513,1.881 14.996,0.801 16.705,0.097 C17.241,-0.123 17.838,0.036 18.236,0.503 C18.639,0.973 18.778,1.666 18.587,2.290 C17.431,6.090 18.219,10.201 20.638,13.021 C23.055,15.838 26.584,16.753 29.845,15.410 C30.381,15.189 30.980,15.348 31.377,15.817 C31.781,16.283 31.916,16.979 31.729,17.607 C31.424,18.607 31.035,19.542 30.571,20.406 ZM1.479,37.591 L36.877,37.591 C37.692,37.591 38.352,38.360 38.352,39.310 C38.352,40.259 37.692,41.028 36.877,41.028 L1.479,41.028 C0.664,41.028 0.004,40.259 0.004,39.310 C0.004,38.360 0.664,37.591 1.479,37.591 Z" class="cls-1"/>
</svg>
